<?xml version="1.0" encoding="utf-8"?>

<!DOCTYPE svg PUBLIC "-//W3C//DTD SVG 1.1//EN" "http://www.w3.org/Graphics/SVG/1.1/DTD/svg11.dtd">
<!-- Uploaded to: SVG Repo, www.svgrepo.com, Generator: SVG Repo Mixer Tools -->
<svg height="800px" width="800px" version="1.1" id="图层_1" xmlns="http://www.w3.org/2000/svg" xmlns:xlink="http://www.w3.org/1999/xlink" 
	 viewBox="0 0 40 40" enable-background="new 0 0 40 40" xml:space="preserve">
<g>
	<g>
		<g>
			<g>
				<path fill="#b8b8b8" d="M14,22h10c0.8,0,1.5-0.7,1.5-1.5v-6c0-0.3,0.2-0.5,0.5-0.5s0.5,0.2,0.5,0.5v6c0,1.4-1.1,2.5-2.5,2.5H14
					V22z"/>
			</g>
			<g>
				<path fill="#b8b8b8" d="M17,26c-0.1,0-0.3,0-0.4-0.1l-3-3c-0.2-0.2-0.2-0.5,0-0.7l3-3c0.2-0.2,0.5-0.2,0.7,0s0.2,0.5,0,0.7
					l-2.6,2.6l2.6,2.6c0.2,0.2,0.2,0.5,0,0.7C17.3,26,17.1,26,17,26z"/>
			</g>
		</g>
	</g>
</g>
</svg>